<?xml version="1.0" encoding="UTF-8"?>
<!-- Generator: visioncortex VTracer 0.6.4 -->
<svg version="1.1" xmlns="http://www.w3.org/2000/svg" width="461" height="452">
<path d="M0 0 C152.13 0 304.26 0 461 0 C461 149.16 461 298.32 461 452 C308.87 452 156.74 452 0 452 C0 302.84 0 153.68 0 0 Z " fill="#FDFDFD" transform="translate(0,0)"/>
<path d="M0 0 C1.78065102 -0.01029488 1.78065102 -0.01029488 3.59727478 -0.02079773 C7.48579178 -0.03896147 11.37390122 -0.03524247 15.26245117 -0.02954102 C17.2989763 -0.03202334 19.33549175 -0.03637206 21.37201327 -0.04089409 C27.7656311 -0.05487978 34.15911515 -0.05342897 40.55273438 -0.04199219 C47.10685453 -0.03052597 53.66056474 -0.04457478 60.2146309 -0.07138866 C65.87963287 -0.09368112 71.54450745 -0.10015257 77.20955008 -0.09431225 C80.57634332 -0.0909724 83.9426668 -0.09491251 87.30945778 -0.11056328 C124.40357523 -0.25870955 124.40357523 -0.25870955 139.77026367 14.60717773 C150.25134034 25.77137858 153.96407748 37.63226203 153.88110352 52.74755859 C153.88898895 54.53740929 153.88898895 54.53740929 153.89703369 56.36341858 C153.90790541 59.60738952 153.90545505 62.85098764 153.89589643 66.09495234 C153.88823973 69.509074 153.89536214 72.92317278 153.90005493 76.33729553 C153.90549588 82.06914667 153.89836552 87.80088142 153.8840332 93.53271484 C153.86771762 100.13339226 153.87299383 106.73379145 153.88951242 113.33446211 C153.90318425 119.0282308 153.90501906 124.72191637 153.89719641 130.4156962 C153.89255 133.80463719 153.89181028 137.19344799 153.90180588 140.58238029 C153.90946975 144.36549242 153.89774593 148.1480791 153.88110352 151.93115234 C153.88717621 153.03538544 153.8932489 154.13961853 153.89950562 155.27731323 C153.78688993 169.17576425 149.53531819 182.37503737 139.99291992 192.71655273 C134.22059922 198.14778175 127.76308267 201.37194694 120.49291992 204.40405273 C119.68993469 204.75674728 118.88694946 205.10944183 118.05963135 205.4728241 C112.75862961 206.85685662 107.58551478 206.6902758 102.12866211 206.67871094 C100.88563828 206.68382187 99.64261444 206.6889328 98.36192322 206.69419861 C94.9628745 206.70569697 91.56407008 206.70817114 88.16501904 206.70563531 C85.3199507 206.70456256 82.47490463 206.70945699 79.62984109 206.71424073 C72.91149483 206.72532442 66.19320449 206.72578051 59.47485352 206.71972656 C52.56410674 206.7136945 45.65356395 206.72598076 38.74285197 206.74729663 C32.79356622 206.76496643 26.84434507 206.77090533 20.89503407 206.76765889 C17.3490006 206.76585357 13.80311248 206.76840598 10.25710297 206.78237343 C6.29624066 206.79739158 2.33563376 206.78793475 -1.62524414 206.77636719 C-2.78611038 206.78401093 -3.94697662 206.79165466 -5.14302063 206.79953003 C-19.02488857 206.71023922 -29.67405584 202.13800792 -39.81958008 192.59155273 C-50.17683326 181.55652429 -54.12699522 168.48253504 -54.04052734 153.58984375 C-54.04914291 152.37026978 -54.05775848 151.1506958 -54.06663513 149.89416504 C-54.08529489 146.58591036 -54.08624377 143.27866899 -54.07731366 139.9704411 C-54.07215854 137.19243524 -54.07953259 134.4145167 -54.08678573 131.63651985 C-54.1037129 125.0751459 -54.10029199 118.51400491 -54.08349609 111.95263672 C-54.06658014 105.21889186 -54.08241778 98.48579558 -54.11471897 91.75212151 C-54.14154174 85.93681424 -54.14865699 80.12170729 -54.14020389 74.30634445 C-54.13531155 70.84796389 -54.1372867 67.38997301 -54.15799141 63.93164253 C-54.17553764 60.06984197 -54.16080816 56.2094037 -54.13818359 52.34765625 C-54.14987579 51.22570358 -54.16156799 50.10375092 -54.1736145 48.94779968 C-54.00473303 34.67909601 -47.7593054 22.96145084 -38.19458008 12.65405273 C-27.2949366 2.38416644 -14.55827097 -0.05997187 0 0 Z " fill="#757574" transform="translate(294.507080078125,10.595947265625)"/>
<path d="M0 0 C1.24302383 -0.00350464 2.48604767 -0.00700928 3.76673889 -0.01062012 C7.165793 -0.01790155 10.56460279 -0.01621168 13.96364307 -0.00986195 C17.53173451 -0.00478151 21.09981585 -0.00949948 24.66790771 -0.01263428 C30.66322694 -0.01626987 36.65849686 -0.0114875 42.65380859 -0.00195312 C49.56451615 0.00891079 56.47510549 0.00541926 63.38581014 -0.00560594 C69.33509299 -0.01471421 75.28434046 -0.01594625 81.23362803 -0.0107286 C84.77962473 -0.00762573 88.3255661 -0.00715247 91.87155914 -0.01380157 C95.83238732 -0.02070982 99.7930858 -0.0111047 103.75390625 0 C104.91477249 -0.00404846 106.07563873 -0.00809692 107.27168274 -0.01226807 C122.82992552 0.06819309 132.86928394 4.09770849 144.30761719 14.76269531 C148.11271662 18.84232373 151.02479652 23.34162348 153.63574219 28.25878906 C154.15278214 29.20449768 154.66982208 30.1502063 155.20252991 31.12457275 C157.49547674 36.57996501 157.06144049 42.3589181 157.03979492 48.1796875 C157.04665817 49.47001892 157.05352142 50.76035034 157.06059265 52.08978271 C157.07847595 55.61486038 157.07736424 59.13968845 157.07165027 62.66479778 C157.0685497 65.61670017 157.07466086 68.5685552 157.08068901 71.52045083 C157.09471837 78.49153886 157.09318779 85.46250433 157.08178711 92.43359375 C157.07032248 99.6017242 157.08435705 106.76947977 157.11118358 113.9375608 C157.13341465 120.11109781 157.13996093 126.28451781 157.13410717 132.45809197 C157.13075218 136.13663982 157.13305392 139.81494778 157.1503582 143.49346161 C157.16884554 147.60264912 157.15456457 151.71111895 157.13745117 155.8203125 C157.15195312 157.62399292 157.15195312 157.62399292 157.16674805 159.46411133 C157.07149331 170.43367211 154.01457801 179.35991934 147.63574219 188.25878906 C146.91386719 189.26941406 146.19199219 190.28003906 145.44824219 191.32128906 C138.96124642 198.75809418 128.33261189 205.2617071 118.54715919 206.71864128 C115.15424067 206.88328854 111.79338614 206.90077636 108.39672852 206.8581543 C107.12050125 206.86209702 105.84427399 206.86603973 104.52937317 206.87010193 C101.06233877 206.87999127 97.59613539 206.85905096 94.1292212 206.83162189 C90.48417052 206.80760921 86.83913118 206.81073544 83.1940155 206.81031799 C77.07882812 206.80570557 70.9639543 206.78216679 64.84887695 206.74584961 C57.79543335 206.70406904 50.74227125 206.68653059 43.68871099 206.68322986 C36.15026108 206.67962137 28.61191119 206.66074234 21.07350326 206.63610959 C18.91274394 206.62990427 16.75199226 206.62625346 14.59122658 206.62307549 C10.5562205 206.61604012 6.52149791 206.59161006 2.48657227 206.56518555 C1.29831848 206.56452087 0.1100647 206.5638562 -1.11419678 206.56317139 C-14.08838206 206.44613141 -24.89886575 203.13280344 -34.55175781 194.14160156 C-45.44081653 182.83012246 -49.82350027 170.08307095 -49.78417969 154.58569336 C-49.79264923 153.34544403 -49.80111877 152.1051947 -49.80984497 150.82736206 C-49.82914133 147.44891884 -49.83499874 144.07102987 -49.83309746 140.69256949 C-49.83297709 137.85995318 -49.84156838 135.0273875 -49.84987497 132.19478542 C-49.86905933 125.50457788 -49.87201134 118.81449508 -49.86523438 112.12426758 C-49.85859976 105.2514206 -49.88144548 98.37911114 -49.91854811 91.50637311 C-49.94936646 85.57990733 -49.96059201 79.65361337 -49.95671129 73.7270692 C-49.95465596 70.1987932 -49.95993197 66.67093562 -49.98460388 63.14273643 C-50.01125653 59.20163778 -49.99705095 55.26122885 -49.97949219 51.32006836 C-49.99275543 50.1711058 -50.00601868 49.02214325 -50.01968384 47.83836365 C-49.88051278 34.31813902 -43.80406102 22.9305329 -34.73925781 13.13378906 C-24.49404321 3.28262117 -13.81857637 -0.04785778 0 0 Z " fill="#757575" transform="translate(56.3642578125,239.7412109375)"/>
<path d="M0 0 C1.19758438 -0.0065712 2.39516876 -0.0131424 3.62904358 -0.01991272 C7.58732474 -0.03960102 11.54559255 -0.05130925 15.50390625 -0.0612793 C16.87369811 -0.06533131 18.24348978 -0.06944836 19.61328125 -0.07362938 C26.05468943 -0.09266316 32.49608631 -0.10689508 38.93751717 -0.11524135 C46.33771879 -0.1249917 53.73761956 -0.15126081 61.13771534 -0.19174224 C66.8798359 -0.2220599 72.621871 -0.23672513 78.36406994 -0.24002236 C81.78287848 -0.24235605 85.20136504 -0.25109299 88.62008667 -0.27648354 C109.00804227 -0.4071375 124.68845343 -0.31684268 140.3125 14.2746582 C148.56695574 22.87239944 153.15876565 32.78471983 153.21357727 44.71511841 C153.22431023 46.32961632 153.22431023 46.32961632 153.23526001 47.97673035 C153.23794891 49.14255142 153.24063782 50.3083725 153.2434082 51.50952148 C153.2499794 52.74933273 153.2565506 53.98914398 153.26332092 55.26652527 C153.28301023 59.36429084 153.29471524 63.46201737 153.3046875 67.55981445 C153.30873899 68.97670383 153.31285602 70.39359302 153.31703758 71.81048203 C153.33606899 78.47079995 153.35030331 85.13110695 153.35864955 91.79144681 C153.36840923 99.45088591 153.39470392 107.11003506 153.43515044 114.76937211 C153.46542458 120.70848734 153.48012913 126.64751998 153.48343056 132.58671081 C153.48576849 136.12505814 153.49456291 139.66309502 153.51989174 143.2013588 C153.54775317 147.15703601 153.54330693 151.11233919 153.53637695 155.06811523 C153.55559204 156.79862877 153.55559204 156.79862877 153.57519531 158.56410217 C153.50156148 170.15718629 150.32984837 180.08917414 143.06640625 189.17700195 C142.53789062 189.85375977 142.009375 190.53051758 141.46484375 191.2277832 C134.7810493 198.80962052 124.03476788 204.4761391 114.06640625 206.17700195 C112.27032891 206.26827201 110.4714355 206.31166874 108.67304993 206.31744385 C107.60361649 206.32315399 106.53418304 206.32886414 105.43234253 206.33474731 C104.26913483 206.33586517 103.10592712 206.33698303 101.9074707 206.33813477 C100.05778435 206.34558212 100.05778435 206.34558212 98.17073059 206.35317993 C94.79441402 206.36526667 91.41815921 206.37274122 88.04182839 206.37719059 C85.92858571 206.38012848 83.81534837 206.38423468 81.70210838 206.38869476 C75.07916329 206.40236046 68.45623049 206.41203106 61.83327228 206.41589665 C54.20894597 206.42037212 46.5847994 206.4379 38.96052772 206.46689725 C33.05373407 206.48857615 27.14699076 206.49860427 21.24015778 206.49993777 C17.71868762 206.50098158 14.19738662 206.5067979 10.67595863 206.52475739 C6.74135278 206.54443443 2.80696814 206.53992443 -1.12768555 206.53344727 C-2.28077209 206.54266205 -3.43385864 206.55187683 -4.62188721 206.56137085 C-18.76617226 206.48867189 -29.24828701 201.62852525 -39.68359375 192.11450195 C-50.40996281 180.84892583 -53.24799891 167.12611073 -53.19238281 152.11474609 C-53.19588745 150.93955917 -53.19939209 149.76437225 -53.20300293 148.55357361 C-53.21176646 144.68970742 -53.2059896 140.82602608 -53.19921875 136.9621582 C-53.19966493 134.26370599 -53.20250626 131.565257 -53.20501709 128.86680603 C-53.20864592 123.21896382 -53.20388669 117.57117407 -53.19433594 111.92333984 C-53.18345874 105.41644171 -53.18697597 98.90966901 -53.19798875 92.40277392 C-53.20709892 86.79312992 -53.20832859 81.18352343 -53.20311141 75.57387441 C-53.20001143 72.2335883 -53.20032589 68.89340775 -53.20618439 65.55311775 C-53.2112884 61.82487757 -53.20348455 58.09687493 -53.19238281 54.36865234 C-53.19643127 53.27795441 -53.20047974 52.18725647 -53.20465088 51.06350708 C-53.12069387 35.77066267 -48.97571444 24.69295811 -38.359375 13.4699707 C-26.79473149 2.53849608 -15.50850704 0.03705836 0 0 Z " fill="#757575" transform="translate(59.93359375,10.822998046875)"/>
<path d="M0 0 C10.84678495 9.24590404 19.47646949 19.16203752 26.47070312 31.64501953 C27.17839844 32.87478516 27.17839844 32.87478516 27.90039062 34.12939453 C35.49864821 48.19325018 37.68228554 63.07306996 37.76586914 78.87548828 C37.77731647 80.37428279 37.79765176 81.87303891 37.82739258 83.37158203 C38.35619566 110.12488228 27.21664133 134.16733742 8.96533203 153.60375977 C-1.46247263 164.33179214 -13.62892646 172.12850481 -27.52929688 177.64501953 C-28.12935547 177.91862305 -28.72941406 178.19222656 -29.34765625 178.47412109 C-48.40879315 187.09146484 -78.16290246 187.60368361 -97.81054688 180.25439453 C-99.0550653 179.72948666 -100.2946521 179.19274816 -101.52929688 178.64501953 C-102.20605469 178.355625 -102.8828125 178.06623047 -103.58007812 177.76806641 C-131.21285499 165.69474739 -151.26310161 144.69349972 -162.52929688 116.64501953 C-165.68237297 107.62903518 -167.66787612 99.28669251 -167.76757812 89.71142578 C-167.77564987 88.95643295 -167.78372162 88.20144012 -167.79203796 87.42356873 C-167.80581546 85.82756804 -167.81656569 84.23153867 -167.82446289 82.63549805 C-167.83590449 81.03286861 -167.85623017 79.43027488 -167.88598633 77.82788086 C-168.40090427 50.01368191 -157.06263585 26.78182298 -137.96679688 6.70751953 C-100.58102801 -29.5954298 -40.65408093 -33.42255577 0 0 Z " fill="#747474" transform="translate(409.529296875,262.35498046875)"/>
<path d="M0 0 C0.66 0 1.32 0 2 0 C2.09294975 12.83106959 2.16389157 25.66205821 2.20724869 38.49339676 C2.22806485 44.45242512 2.25627319 50.41122201 2.30175781 56.37011719 C2.34542869 62.12785853 2.36918195 67.88537813 2.37950897 73.6432724 C2.38686231 75.83276608 2.40122109 78.02224853 2.42292023 80.21164703 C2.58729917 97.49480661 1.34374496 110.68317874 -10.625 124.125 C-13 126 -13 126 -15.3125 125.8125 C-15.869375 125.544375 -16.42625 125.27625 -17 125 C-15.90945312 123.98099609 -15.90945312 123.98099609 -14.796875 122.94140625 C-11.77007033 119.91139975 -9.52510695 116.54932804 -7.25 112.9375 C-6.65251953 112.02000977 -6.65251953 112.02000977 -6.04296875 111.08398438 C-4.15909534 108.13045402 -2.52390554 105.50143534 -2 102 C-1.34 102 -0.68 102 0 102 C-0.16233124 101.35703476 -0.32466248 100.71406952 -0.49191284 100.05162048 C-1.15496824 96.06924579 -1.13930067 92.204169 -1.12939453 88.17407227 C-1.13202301 86.85607132 -1.13202301 86.85607132 -1.13470459 85.51144409 C-1.13909804 82.61307792 -1.13619366 79.71477302 -1.1328125 76.81640625 C-1.13348632 74.7976836 -1.134457 72.77896102 -1.13571167 70.76023865 C-1.1371853 66.53115058 -1.13504504 62.30208365 -1.13037109 58.07299805 C-1.12467768 52.65815069 -1.12795249 47.24335295 -1.13394356 41.82850742 C-1.13756131 37.66004565 -1.13640493 33.4915956 -1.13381577 29.32313347 C-1.13314967 27.32688326 -1.13396382 25.33063197 -1.13629532 23.33438301 C-1.13884133 20.54133422 -1.13495359 17.74836514 -1.12939453 14.95532227 C-1.13141876 14.13383194 -1.13344299 13.31234161 -1.13552856 12.46595764 C-1.11983354 8.19848043 -0.84735062 4.20355613 0 0 Z " fill="#676766" transform="translate(211,79)"/>
<path d="M0 0 C2.60905261 2.60905261 2.2550925 3.7005204 2.26742554 7.33630371 C2.27595551 8.46892639 2.28448547 9.60154907 2.29327393 10.76849365 C2.29236755 12.01729309 2.29146118 13.26609253 2.29052734 14.55273438 C2.30060318 16.51880646 2.30060318 16.51880646 2.31088257 18.52459717 C2.32859082 22.12835958 2.33324028 25.73202707 2.33451414 29.33582878 C2.33593489 31.58960331 2.34020326 33.84335366 2.34550858 36.09712219 C2.36403281 43.96710746 2.3721772 51.8370249 2.37060547 59.70703125 C2.36940708 67.02899762 2.39044335 74.35066776 2.4220928 81.67255926 C2.44832019 87.96571147 2.45896989 94.25876743 2.45769465 100.55197382 C2.45718641 104.30714975 2.46279078 108.0620632 2.48405075 111.81718445 C2.50353955 115.3565911 2.50348601 118.8954881 2.48901749 122.43491364 C2.48595724 124.3390604 2.50253597 126.24320776 2.51989746 128.14727783 C2.44687111 138.2031727 0.06962094 145.90717208 -6 154 C-6.391875 154.53625 -6.78375 155.0725 -7.1875 155.625 C-9.78176019 158.99753825 -11.89339719 160.82668491 -16 162 C-14.23986361 156.64306315 -10.93897564 153.49503963 -7.09375 149.5 C-5.00839535 147.01002429 -4.00813535 145.05951525 -3 142 C-2.649375 140.96875 -2.29875 139.9375 -1.9375 138.875 C0.24276864 129.86322296 0.14313986 120.59344085 0.11352539 111.3684082 C0.11367142 110.15735916 0.11381744 108.94631012 0.1139679 107.69856262 C0.11339523 104.41417728 0.10841906 101.12983591 0.10139394 97.84545922 C0.09509472 94.39951285 0.09455145 90.95356538 0.09336853 87.50761414 C0.09027443 80.99851752 0.08208721 74.48943793 0.07201904 67.98034877 C0.06079789 60.56306667 0.0553324 53.14578372 0.05032361 45.72849524 C0.03990277 30.48565367 0.02234094 15.24282904 0 0 Z " fill="#646463" transform="translate(210,274)"/>
<path d="M0 0 C0.64808624 -0.00014603 1.29617249 -0.00029205 1.96389771 -0.0004425 C4.0818429 0.0002477 6.19969733 0.00800083 8.31762695 0.01586914 C9.80019584 0.01773735 11.28276535 0.01915935 12.76533508 0.02015686 C16.65176118 0.02395742 20.53814935 0.03376195 24.42456055 0.04486084 C28.3804473 0.05510137 32.33634013 0.05966722 36.29223633 0.06469727 C43.24181067 0.0742463 50.19135688 0.08873011 57.14091492 0.10679626 C59.46674115 0.11205263 61.79257603 0.11352539 64.1184082 0.11352539 C68.26525774 0.23146505 72.41039771 0.39348188 76.5559082 0.55102539 C77.68834961 0.5903418 78.82079102 0.6296582 79.98754883 0.67016602 C81.08131836 0.71206055 82.17508789 0.75395508 83.30200195 0.79711914 C84.79558228 0.85210571 84.79558228 0.85210571 86.31933594 0.90820312 C88.99564849 1.10452051 91.50296001 1.52563982 94.1184082 2.11352539 C94.1184082 2.44352539 94.1184082 2.77352539 94.1184082 3.11352539 C58.4784082 3.11352539 22.8384082 3.11352539 -13.8815918 3.11352539 C-13.8815918 2.45352539 -13.8815918 1.79352539 -13.8815918 1.11352539 C-9.20647422 0.36288632 -4.73305129 -0.00904001 0 0 Z " fill="#6D6D6B" transform="translate(73.881591796875,442.886474609375)"/>
<path d="M0 0 C0.33 0 0.66 0 1 0 C-0.08559901 12.86754117 -12.56395775 23.84226619 -22 32 C-32.21658819 40 -32.21658819 40 -36 40 C-34.49616703 35.78926767 -31.79335044 34.16762883 -28 32 C-27.01 32 -26.02 32 -25 32 C-24.74863281 31.42121094 -24.49726563 30.84242188 -24.23828125 30.24609375 C-22.84407086 27.71716323 -21.26209642 26.0656954 -19.1875 24.0625 C-18.47078125 23.36253906 -17.7540625 22.66257812 -17.015625 21.94140625 C-16.35046875 21.30074219 -15.6853125 20.66007812 -15 20 C-6.4101193 12.07475296 -6.4101193 12.07475296 -1 2 C-0.67 1.34 -0.34 0.68 0 0 Z " fill="#636361" transform="translate(432,392)"/>
<path d="M0 0 C9.22746289 2.80719031 16.5658439 8.43308199 23.875 14.5625 C24.4100415 15.00907959 24.94508301 15.45565918 25.49633789 15.91577148 C29.08458972 18.99695718 32.05457739 22.29920148 35 26 C34.01 26.495 34.01 26.495 33 27 C30 25 30 25 29 22 C28.01 21.67 27.02 21.34 26 21 C26 20.01 26 19.02 26 18 C25.278125 17.7525 24.55625 17.505 23.8125 17.25 C20.74086887 15.88483061 18.5895248 14.1247383 16 12 C14.68861096 11.29114106 13.36222983 10.60543548 12 10 C12 9.01 12 8.02 12 7 C10.14375 6.6596875 10.14375 6.6596875 8.25 6.3125 C4.07965475 5.2994906 2.32446864 3.68040867 0 0 Z " fill="#656564" transform="translate(388,250)"/>
<path d="M0 0 C-1.33631649 2.67263298 -3.01755883 2.97238553 -5.73376465 3.93855286 C-16.41222232 7.41678684 -26.35296947 7.58667515 -37.5 7.3125 C-39.30595808 7.2873406 -41.11195064 7.26454115 -42.91796875 7.24414062 C-47.27952068 7.1898537 -51.63936256 7.10402284 -56 7 C-52.24757485 4.49838323 -50.4175175 4.82016484 -45.9453125 4.9453125 C-44.51042717 4.97065387 -43.07553072 4.99537203 -41.640625 5.01953125 C-39.39840212 5.06863457 -37.15677544 5.12403817 -34.91503906 5.19189453 C-22.62316591 5.5401917 -11.48152002 -0.30214526 0 0 Z " fill="#666564" transform="translate(383,438)"/>
<path d="M0 0 C2.7970705 2.26429517 3.73439093 4.74681548 5.05078125 8.02734375 C7.36542365 12.83760883 11.00220037 17.46028158 15 21 C15.99 21.33 16.98 21.66 18 22 C19.84499398 23.87617698 21.3683599 25.92737609 23 28 C14.60792473 25.63972883 7.15134035 17.20656231 2.7421875 9.921875 C0.77389679 6.20552192 0 4.34183431 0 0 Z " fill="#656464" transform="translate(10,183)"/>
<path d="M0 0 C8.00887293 4.08615966 15.59357606 10.39523119 19 19 C18.625 21.23828125 18.625 21.23828125 18 23 C16 21 16 21 15.5 18.9375 C15.335 18.298125 15.17 17.65875 15 17 C14.34 16.67 13.68 16.34 13 16 C12.02208517 14.23975331 11.04477288 12.47915963 10.07421875 10.71484375 C8.70827624 8.5343028 7.18214772 7.33744538 5 6 C4.01 5.34 3.02 4.68 2 4 C2 3.34 2 2.68 2 2 C1.34 2 0.68 2 0 2 C0 1.34 0 0.68 0 0 Z " fill="#666765" transform="translate(424,18)"/>
<path d="M0 0 C0.66 0.33 1.32 0.66 2 1 C1.7834375 2.5159375 1.7834375 2.5159375 1.5625 4.0625 C0.84167951 9.61882459 0.64020581 15.21176506 0.37890625 20.8046875 C0 24 0 24 -2 26 C-2.05799124 22.22923111 -2.09359306 18.45857666 -2.125 14.6875 C-2.14175781 13.61564453 -2.15851563 12.54378906 -2.17578125 11.43945312 C-2.18222656 10.41142578 -2.18867188 9.38339844 -2.1953125 8.32421875 C-2.20578613 7.37635498 -2.21625977 6.42849121 -2.22705078 5.4519043 C-2 3 -2 3 0 0 Z " fill="#6A6A6A" transform="translate(244,321)"/>
<path d="M0 0 C1.87751953 0.00676758 1.87751953 0.00676758 3.79296875 0.01367188 C6.86202941 0.02538585 9.93098907 0.04178927 13 0.0625 C13 0.3925 13 0.7225 13 1.0625 C5.08 1.3925 -2.84 1.7225 -11 2.0625 C-11.33 2.7225 -11.66 3.3825 -12 4.0625 C-13.0725 4.041875 -14.145 4.02125 -15.25 4 C-18.14790424 4.0482984 -20.28612141 4.19405885 -23 5.0625 C-22.67 3.7425 -22.34 2.4225 -22 1.0625 C-14.65939989 -0.10282027 -7.42007939 -0.0509298 0 0 Z " fill="#868686" transform="translate(344,239.9375)"/>
<path d="M0 0 C0.33 0.99 0.66 1.98 1 3 C-0.29296875 4.90234375 -0.29296875 4.90234375 -2.1875 6.9375 C-2.83203125 7.63746094 -3.4765625 8.33742187 -4.140625 9.05859375 C-6.06614155 11.06905956 -7.9915818 13.07191853 -10 15 C-10.99 14.67 -11.98 14.34 -13 14 C-11.71937515 12.2925002 -10.38232443 10.62626404 -9 9 C-8.34 9 -7.68 9 -7 9 C-6.773125 8.2575 -6.54625 7.515 -6.3125 6.75 C-4.75592468 3.48860409 -2.91481146 2.07105025 0 0 Z " fill="#666664" transform="translate(439,193)"/>
<path d="M0 0 C0.99 0.33 1.98 0.66 3 1 C2.32453125 1.72445312 1.6490625 2.44890625 0.953125 3.1953125 C-0.38492187 4.64550781 -0.38492187 4.64550781 -1.75 6.125 C-2.63171875 7.07632812 -3.5134375 8.02765625 -4.421875 9.0078125 C-6.92271085 11.91029774 -8.95213096 14.77508474 -11 18 C-11.6953125 16.27734375 -11.6953125 16.27734375 -12 14 C-10.7421875 11.81640625 -10.7421875 11.81640625 -8.875 9.5625 C-8.23175781 8.78132813 -7.58851562 8.00015625 -6.92578125 7.1953125 C-4.71114574 4.67071786 -2.44713008 2.29881917 0 0 Z " fill="#6B6B6B" transform="translate(25,250)"/>
<path d="M0 0 C7.61299862 2.37906207 13.26959697 7.79134603 18 14 C17.67 14.66 17.34 15.32 17 16 C14.97291079 14.04281042 13.16016956 12.24753478 11.625 9.875 C9.43733963 7.3507765 7.13545854 7.00067826 4 6 C3.34 5.01 2.68 4.02 2 3 C1.34 3 0.68 3 0 3 C0 2.01 0 1.02 0 0 Z " fill="#666563" transform="translate(186,16)"/>
<path d="M0 0 C6.73575181 2.97592483 10.93610524 9.50454311 14 16 C13.75 18.4375 13.75 18.4375 13 20 C9 13.375 9 13.375 9 10 C8.34 10 7.68 10 7 10 C7 9.34 7 8.68 7 8 C6.34 8 5.68 8 5 8 C3.02805885 6.02805885 2.167635 4.49095467 1 2 C0.67 1.34 0.34 0.68 0 0 Z " fill="#6A6A69" transform="translate(196,252)"/>
<path d="M0 0 C7.05843338 0.25208691 10.71459055 2.40338061 16 7 C15.67 7.66 15.34 8.32 15 9 C13.66666667 8.33333333 12.33333333 7.66666667 11 7 C9.96875 6.505 8.9375 6.01 7.875 5.5 C5 4 5 4 3 2 C2.01 2 1.02 2 0 2 C0 1.34 0 0.68 0 0 Z " fill="#6B6969" transform="translate(179,243)"/>
<path d="M0 0 C1.98 0 3.96 0 6 0 C2.12509522 4.37651058 -3.66935923 6.65250136 -9.43359375 7.25390625 C-11.29098883 7.25059539 -13.14767684 7.13720912 -15 7 C-15 6.67 -15 6.34 -15 6 C-13.906875 5.87625 -12.81375 5.7525 -11.6875 5.625 C-7.92618198 5.24535199 -7.92618198 5.24535199 -5 3 C-3.68 3 -2.36 3 -1 3 C-0.67 2.01 -0.34 1.02 0 0 Z " fill="#636361" transform="translate(419,209)"/>
<path d="M0 0 C3.63350629 1.70988531 5.61373714 3.6533083 7.875 6.875 C10.76507229 10.95421662 13.80413493 13.31464636 18 16 C17.34 16.33 16.68 16.66 16 17 C9.80502185 12.79861854 4.51500366 8.00399423 0 2 C0 1.34 0 0.68 0 0 Z " fill="#626161" transform="translate(249,194)"/>
<path d="M0 0 C3.97662718 2.87200852 6.5890158 5.71380587 9 10 C9 11.32 9 12.64 9 14 C8.34 14 7.68 14 7 14 C6.773125 13.278125 6.54625 12.55625 6.3125 11.8125 C4.75173074 8.46799444 2.6266129 6.55926385 0 4 C-0.33 3.01 -0.66 2.02 -1 1 C-0.67 0.67 -0.34 0.34 0 0 Z " fill="#666665" transform="translate(423,277)"/>
<path d="M0 0 C0.99 0 1.98 0 3 0 C1.955647 2.89205445 1.19072175 3.88658174 -1.49609375 5.484375 C-2.46675781 5.90203125 -3.43742188 6.3196875 -4.4375 6.75 C-5.88962891 7.39195312 -5.88962891 7.39195312 -7.37109375 8.046875 C-10 9 -10 9 -13 9 C-13 8.34 -13 7.68 -13 7 C-11.3767313 6.3291288 -9.75132422 5.66342971 -8.125 5 C-7.22007812 4.62875 -6.31515625 4.2575 -5.3828125 3.875 C-3 3 -3 3 -1 3 C-0.67 2.01 -0.34 1.02 0 0 Z " fill="#656663" transform="translate(191,206)"/>
<path d="M0 0 C0 3.62189223 -0.99315118 5.00562117 -2.875 8.0625 C-3.40867188 8.94035156 -3.94234375 9.81820312 -4.4921875 10.72265625 C-6 13 -6 13 -8 15 C-8.62263965 9.8943549 -7.33830833 7.45107777 -4.38671875 3.515625 C-3 2 -3 2 0 0 Z " fill="#6A6A6A" transform="translate(254,28)"/>
<path d="M0 0 C3.43866095 1.14622032 3.97659718 2.26992317 5.8125 5.24609375 C7.58518325 7.86430026 9.75227128 10.09742859 11.92578125 12.38671875 C12.28027344 12.91910156 12.63476562 13.45148438 13 14 C12.67 14.99 12.34 15.98 12 17 C10.56147125 15.25084555 9.12421802 13.50064205 7.6875 11.75 C6.88699219 10.77546875 6.08648437 9.8009375 5.26171875 8.796875 C0 2.29015544 0 2.29015544 0 0 Z " fill="#686868" transform="translate(258,399)"/>
<path d="M0 0 C0.99 0.33 1.98 0.66 3 1 C-0.3 4.63 -3.6 8.26 -7 12 C-7.33 11.01 -7.66 10.02 -8 9 C-6.6015625 6.9921875 -6.6015625 6.9921875 -4.625 4.875 C-3.97789063 4.17117187 -3.33078125 3.46734375 -2.6640625 2.7421875 C-1.7838265 1.82062587 -0.90113574 0.90113574 0 0 Z " fill="#696969" transform="translate(24,22)"/>
<path d="M0 0 C1.17219543 0.78345715 2.33763668 1.57702836 3.5 2.375 C4.47453125 3.03628906 4.47453125 3.03628906 5.46875 3.7109375 C5.9740625 4.13632812 6.479375 4.56171875 7 5 C7 5.66 7 6.32 7 7 C7.66 7 8.32 7 9 7 C10.38938077 8.96147874 11.7260411 10.96166576 13 13 C7.48786801 10.55016356 3.48014234 6.89797811 0 2 C0 1.34 0 0.68 0 0 Z " fill="#626061" transform="translate(16,425)"/>
<path d="M0 0 C0.99 0.33 1.98 0.66 3 1 C1.92807816 2.3218362 0.84197305 3.63217927 -0.25 4.9375 C-0.85328125 5.66839844 -1.4565625 6.39929688 -2.078125 7.15234375 C-4.10741134 9.10326334 -5.254407 9.61731779 -8 10 C-6.34908222 5.70761377 -3.26245434 3.1206085 0 0 Z " fill="#6A6A69" transform="translate(274,267)"/>
<path d="M0 0 C5.19591612 0.44033187 8.66335081 0.88303339 13 4 C9.83977452 5.39049921 8.72985675 4.90218951 5.375 3.6875 C2 2 2 2 0 0 Z " fill="#6A6968" transform="translate(410,13)"/>
<path d="M0 0 C6.20970773 -0.33266291 10.28264895 0.54970669 16 3 C15.34 3.66 14.68 4.32 14 5 C9.38 3.68 4.76 2.36 0 1 C0 0.67 0 0.34 0 0 Z " fill="#686868" transform="translate(169,12)"/>
<path d="M0 0 C0.88336837 2.4667645 1.1312406 3.63859372 0.22265625 6.140625 C-0.16019531 6.83671875 -0.54304688 7.5328125 -0.9375 8.25 C-1.31777344 8.95640625 -1.69804687 9.6628125 -2.08984375 10.390625 C-2.39019531 10.92171875 -2.69054687 11.4528125 -3 12 C-3.33 12 -3.66 12 -4 12 C-4 10.35 -4 8.7 -4 7 C-3.34 7 -2.68 7 -2 7 C-2.04125 6.21625 -2.0825 5.4325 -2.125 4.625 C-2 2 -2 2 0 0 Z " fill="#656565" transform="translate(442,372)"/>
<path d="M0 0 C0.99 0.33 1.98 0.66 3 1 C1.68 3.31 0.36 5.62 -1 8 C-1.66 8 -2.32 8 -3 8 C-2.45276317 4.62537285 -1.9451 2.91765 0 0 Z " fill="#696967" transform="translate(256,289)"/>
<path d="M0 0 C-1.26239712 0.86658615 -2.53527501 1.71792059 -3.8125 2.5625 C-4.87404297 3.27599609 -4.87404297 3.27599609 -5.95703125 4.00390625 C-8 5 -8 5 -11 4 C-9.73760288 3.13341385 -8.46472499 2.28207941 -7.1875 1.4375 C-6.47980469 0.96183594 -5.77210938 0.48617188 -5.04296875 -0.00390625 C-3 -1 -3 -1 0 0 Z " fill="#676866" transform="translate(193,438)"/>
<path d="M0 0 C2.69824035 2.69824035 3.03921211 5.34900604 4 9 C4.33 9.99 4.66 10.98 5 12 C2 11 2 11 0.8125 8.8125 C-0.07334979 5.74609689 -0.14770318 3.17561845 0 0 Z " fill="#666565" transform="translate(9,407)"/>
<path d="M0 0 C1.875 0.625 1.875 0.625 4 2 C5.25 5.125 5.25 5.125 6 8 C5.34 8.66 4.68 9.32 4 10 C1.125 3.375 1.125 3.375 0 0 Z " fill="#6C6C6C" transform="translate(204,33)"/>
</svg>
